<svg width="134.65" height="54.4" viewBox="0 0 134.65 54.4" xmlns="http://www.w3.org/2000/svg"><g id="svgGroup" stroke-linecap="round" fill-rule="evenodd" font-size="9pt" stroke="#ffb700" stroke-width="0" fill="#007a27" style="stroke:#ffb700;stroke-width:0;fill:#007a27"><path d="M 20.55 2.45 L 21.25 2.45 Q 23.1 2.45 24.9 3 A 7.019 7.019 0 0 1 27.004 4.034 A 6.439 6.439 0 0 1 27.9 4.825 A 4.288 4.288 0 0 1 28.958 6.875 A 6.31 6.31 0 0 1 29.1 8.25 A 4.025 4.025 0 0 1 29.092 8.483 Q 29.069 8.881 28.975 9.575 A 7.98 7.98 0 0 1 28.75 10.673 A 6.717 6.717 0 0 1 28.55 11.275 A 2.054 2.054 0 0 1 28.396 11.596 Q 28.121 12.05 27.7 12.05 Q 27.45 12.05 27.45 11.75 Q 27.45 11.1 27.7 10.45 A 3.68 3.68 0 0 0 27.938 9.435 A 3.39 3.39 0 0 0 27.95 9.15 A 5.05 5.05 0 0 0 27.777 7.795 A 3.863 3.863 0 0 0 26.9 6.2 A 6.293 6.293 0 0 0 24.396 4.535 A 7.327 7.327 0 0 0 24.3 4.5 Q 22.75 3.95 21.15 3.95 A 12.782 12.782 0 0 0 19.174 4.114 Q 18.206 4.265 17.145 4.558 A 22.779 22.779 0 0 0 16.65 4.7 A 25.987 25.987 0 0 0 12.607 6.305 A 29.724 29.724 0 0 0 11.65 6.8 Q 9.15 8.15 7.025 9.975 A 18.398 18.398 0 0 0 4.792 12.239 A 15.264 15.264 0 0 0 3.6 13.9 A 8.773 8.773 0 0 0 2.549 16.31 A 7.669 7.669 0 0 0 2.3 18.25 A 2.977 2.977 0 0 0 2.477 19.291 A 2.676 2.676 0 0 0 2.975 20.125 Q 3.65 20.9 4.675 21.3 Q 5.7 21.7 6.65 21.7 Q 10 21.7 13.275 21.175 Q 16.55 20.65 19.8 20.65 Q 20.75 20.65 21.7 20.875 A 3.489 3.489 0 0 1 22.654 21.248 A 3.016 3.016 0 0 1 23.275 21.725 A 2.031 2.031 0 0 1 23.793 22.638 Q 23.9 23.024 23.9 23.5 A 6.621 6.621 0 0 1 23.362 26.069 A 9.325 9.325 0 0 1 22.45 27.725 A 18.387 18.387 0 0 1 20.367 30.241 A 23.283 23.283 0 0 1 18.7 31.775 Q 16.4 33.7 13.675 35.2 A 34.312 34.312 0 0 1 10.492 36.752 A 27.928 27.928 0 0 1 8.375 37.55 Q 5.8 38.4 3.9 38.4 Q 2.35 38.4 1.325 37.525 Q 0.3 36.65 0.3 35.05 A 2.144 2.144 0 0 1 0.317 34.8 Q 0.362 34.425 0.525 33.825 Q 0.75 33 1.125 32.275 Q 1.414 31.716 1.748 31.588 A 0.56 0.56 0 0 1 1.95 31.55 A 0.315 0.315 0 0 1 2.088 31.578 Q 2.221 31.643 2.245 31.853 A 0.875 0.875 0 0 1 2.25 31.95 A 1.074 1.074 0 0 1 2.196 32.27 Q 2.106 32.558 1.864 32.915 A 4.743 4.743 0 0 1 1.75 33.075 A 2.46 2.46 0 0 0 1.333 34.009 Q 1.255 34.351 1.25 34.747 A 4.351 4.351 0 0 0 1.25 34.8 A 2.62 2.62 0 0 0 1.309 35.375 Q 1.396 35.761 1.609 36.042 A 1.532 1.532 0 0 0 1.8 36.25 A 1.875 1.875 0 0 0 2.697 36.696 A 2.701 2.701 0 0 0 3.25 36.75 Q 5.365 36.75 7.881 35.905 A 21.61 21.61 0 0 0 8.325 35.75 Q 11.1 34.75 13.8 33.1 Q 16.5 31.45 18.625 29.425 A 16.75 16.75 0 0 0 20.234 27.671 Q 21.158 26.498 21.7 25.3 A 3.792 3.792 0 0 0 21.923 24.758 Q 22.02 24.454 22.043 24.171 A 2.137 2.137 0 0 0 22.05 24 A 1.918 1.918 0 0 0 21.985 23.481 Q 21.817 22.884 21.217 22.663 A 1.736 1.736 0 0 0 21.1 22.625 A 7.522 7.522 0 0 0 20.242 22.428 Q 19.775 22.35 19.35 22.35 A 59.277 59.277 0 0 0 14.709 22.539 A 68.811 68.811 0 0 0 12.95 22.7 Q 9.6 23.05 6.25 23.05 Q 4.7 23.05 3.275 22.6 A 5.3 5.3 0 0 1 1.594 21.731 A 4.935 4.935 0 0 1 0.925 21.1 Q 0.055 20.113 0.003 18.461 A 6.751 6.751 0 0 1 0 18.25 A 7.442 7.442 0 0 1 0.603 15.363 A 9.999 9.999 0 0 1 1.4 13.85 A 20.041 20.041 0 0 1 3.908 10.691 A 23.551 23.551 0 0 1 4.925 9.7 Q 7.05 7.75 9.375 6.275 A 38.468 38.468 0 0 1 11.045 5.271 Q 11.876 4.801 12.627 4.442 A 18.632 18.632 0 0 1 13.5 4.05 Q 15.25 3.35 16.975 2.9 Q 18.7 2.45 20.55 2.45 Z M 113.65 20.05 L 113.65 19.65 A 3.263 3.263 0 0 0 113.614 19.162 A 2.951 2.951 0 0 0 113.6 19.075 A 0.594 0.594 0 0 0 113.571 18.968 Q 113.55 18.913 113.519 18.876 A 0.209 0.209 0 0 0 113.35 18.8 A 0.408 0.408 0 0 0 113.173 18.848 Q 112.938 18.963 112.599 19.356 A 5.839 5.839 0 0 0 112.5 19.475 Q 112.049 20.029 111.833 20.297 A 40.22 40.22 0 0 0 111.75 20.4 A 21.809 21.809 0 0 0 110.431 22.263 A 29.448 29.448 0 0 0 109.175 24.45 Q 107.95 26.8 107.05 29.275 Q 106.15 31.75 105.75 33.9 Q 105.7 34.3 105.475 34.75 A 0.88 0.88 0 0 1 105.288 35.006 Q 105.109 35.171 104.845 35.196 A 1.028 1.028 0 0 1 104.75 35.2 Q 104.15 35.2 103.85 34.325 A 8.17 8.17 0 0 1 103.616 33.493 Q 103.484 32.914 103.4 32.225 Q 103.25 31 103.225 29.925 Q 103.2 28.85 103.2 28.5 A 76.945 76.945 0 0 1 103.307 24.522 A 93.93 93.93 0 0 1 103.475 21.975 Q 103.75 18.5 104.375 14.925 A 51.445 51.445 0 0 1 106.034 8.126 A 47.75 47.75 0 0 1 106.05 8.075 A 31.396 31.396 0 0 1 107.643 4.046 A 26.541 26.541 0 0 1 108.65 2.15 Q 108.969 1.603 109.579 1.555 A 1.531 1.531 0 0 1 109.7 1.55 Q 110 1.55 110.25 1.725 A 0.569 0.569 0 0 1 110.493 2.135 A 0.865 0.865 0 0 1 110.5 2.25 Q 110.5 2.47 110.392 2.744 A 2.536 2.536 0 0 1 110.3 2.95 A 360.91 360.91 0 0 0 107.877 8.679 A 328.629 328.629 0 0 0 107.55 9.475 A 41.143 41.143 0 0 0 105.671 15.301 A 46.11 46.11 0 0 0 105.45 16.25 Q 104.4 21.05 104.4 26 Q 104.4 28.4 104.7 30.75 A 9.361 9.361 0 0 1 104.856 30.297 Q 105.045 29.787 105.361 29.061 A 51.59 51.59 0 0 1 105.7 28.3 A 74.023 74.023 0 0 1 106.517 26.566 Q 106.958 25.659 107.467 24.666 A 130.089 130.089 0 0 1 107.475 24.65 Q 108.5 22.65 109.675 20.8 A 27.036 27.036 0 0 1 110.617 19.408 Q 111.085 18.765 111.539 18.234 A 13.99 13.99 0 0 1 111.95 17.775 A 6.525 6.525 0 0 1 112.484 17.261 Q 113.069 16.764 113.575 16.641 A 1.369 1.369 0 0 1 113.9 16.6 A 1.396 1.396 0 0 1 114.379 16.677 Q 114.776 16.821 114.98 17.235 A 1.683 1.683 0 0 1 115.075 17.475 A 6.74 6.74 0 0 1 115.258 18.182 Q 115.35 18.646 115.35 19.05 Q 115.35 21.05 115.05 23.05 Q 114.75 25.05 114.75 27.1 Q 114.75 27.287 114.794 28.066 A 125.154 125.154 0 0 0 114.8 28.175 Q 114.85 29.05 115.025 29.85 Q 115.2 30.65 115.5 30.65 Q 115.942 30.65 116.385 30.095 A 2.956 2.956 0 0 0 116.4 30.075 A 7.838 7.838 0 0 0 116.983 29.214 A 9.295 9.295 0 0 0 117.225 28.775 A 500.106 500.106 0 0 1 117.56 28.128 Q 117.718 27.824 117.86 27.552 A 302.884 302.884 0 0 1 117.9 27.475 A 4.874 4.874 0 0 1 118.006 27.282 Q 118.222 26.91 118.343 26.9 A 0.081 0.081 0 0 1 118.35 26.9 A 0.166 0.166 0 0 1 118.494 26.982 Q 118.515 27.013 118.531 27.057 A 0.585 0.585 0 0 1 118.55 27.125 Q 118.588 27.295 118.597 27.393 A 0.615 0.615 0 0 1 118.6 27.45 A 2.476 2.476 0 0 1 118.556 27.89 Q 118.474 28.34 118.24 28.943 A 10.671 10.671 0 0 1 118.125 29.225 Q 117.65 30.35 116.9 31.275 Q 116.15 32.2 115.4 32.2 Q 114.7 32.2 114.275 31.6 A 3.701 3.701 0 0 1 113.85 30.8 A 4.85 4.85 0 0 1 113.65 30.15 A 12.503 12.503 0 0 1 113.414 28.853 A 11.057 11.057 0 0 1 113.375 28.5 A 25.897 25.897 0 0 1 113.342 28.122 Q 113.3 27.588 113.3 27.25 Q 113.3 25.45 113.475 23.65 Q 113.65 21.85 113.65 20.05 Z M 37 23.25 L 37 22.9 A 5.899 5.899 0 0 0 37.006 22.626 Q 37.006 21.737 36.728 20.991 A 4.129 4.129 0 0 0 35.65 19.4 Q 34.2 18.05 32.45 17.15 A 99.767 99.767 0 0 0 30.12 26.439 A 109.754 109.754 0 0 0 29.85 27.825 A 59.267 59.267 0 0 0 28.804 38.081 A 54.737 54.737 0 0 0 28.8 38.75 A 20.104 20.104 0 0 0 28.803 39.075 Q 28.812 39.643 28.85 40.675 A 25.13 25.13 0 0 0 29.001 42.637 A 29.803 29.803 0 0 0 29.125 43.575 A 13.026 13.026 0 0 0 29.37 44.828 Q 29.558 45.581 29.825 46.2 A 2.814 2.814 0 0 0 30.084 46.678 Q 30.511 47.3 31.15 47.3 A 1.349 1.349 0 0 0 32.02 46.98 A 2.039 2.039 0 0 0 32.3 46.7 A 14.495 14.495 0 0 0 32.994 45.8 A 12.868 12.868 0 0 0 33.2 45.5 Q 33.543 44.986 33.775 44.913 A 0.247 0.247 0 0 1 33.85 44.9 Q 34.037 44.9 34.049 45.207 A 1.113 1.113 0 0 1 34.05 45.25 A 1.415 1.415 0 0 1 33.982 45.665 Q 33.857 46.073 33.5 46.575 Q 32.95 47.35 32.2 47.9 A 4.245 4.245 0 0 1 31.794 48.166 Q 31.343 48.423 30.976 48.448 A 1.144 1.144 0 0 1 30.9 48.45 A 1.877 1.877 0 0 1 29.5 47.834 A 2.747 2.747 0 0 1 29.3 47.6 Q 28.696 46.81 28.351 45.609 A 8.866 8.866 0 0 1 28.3 45.425 Q 27.95 44.1 27.775 42.675 Q 27.6 41.25 27.55 40.025 Q 27.5 38.8 27.5 38.15 A 51.656 51.656 0 0 1 27.883 31.96 A 57.199 57.199 0 0 1 28 31.05 Q 28.5 27.4 29.3 23.775 Q 30.1 20.15 31 16.9 A 0.75 0.75 0 0 1 30.538 16.557 A 1.214 1.214 0 0 1 30.425 16.325 A 3.493 3.493 0 0 1 30.322 16 Q 30.279 15.836 30.262 15.691 A 1.614 1.614 0 0 1 30.25 15.5 Q 30.25 14.633 30.806 14.601 A 0.758 0.758 0 0 1 30.85 14.6 A 1.983 1.983 0 0 1 31.175 14.629 Q 31.335 14.655 31.51 14.707 A 3.785 3.785 0 0 1 31.65 14.75 A 51.366 51.366 0 0 0 31.806 14.381 A 68.061 68.061 0 0 0 31.975 13.975 A 0.777 0.777 0 0 1 32.111 13.751 Q 32.265 13.578 32.516 13.554 A 0.874 0.874 0 0 1 32.6 13.55 A 0.853 0.853 0 0 1 33.123 13.729 A 1.07 1.07 0 0 1 33.15 13.75 A 0.65 0.65 0 0 1 33.397 14.225 A 0.915 0.915 0 0 1 33.4 14.3 Q 33.4 14.481 33.298 14.764 A 3.156 3.156 0 0 1 33.275 14.825 Q 33.15 15.15 33.05 15.35 Q 34.95 16.45 36.575 18.075 Q 38.2 19.7 38.45 22.05 A 15.285 15.285 0 0 1 38.558 21.97 Q 38.787 21.802 39.275 21.45 Q 39.9 21 40.525 20.575 A 10.587 10.587 0 0 1 40.743 20.431 Q 41.163 20.16 41.291 20.151 A 0.121 0.121 0 0 1 41.3 20.15 A 0.36 0.36 0 0 1 41.399 20.163 Q 41.51 20.194 41.539 20.308 A 0.368 0.368 0 0 1 41.55 20.4 Q 41.55 20.595 40.934 21.192 A 10.887 10.887 0 0 1 40.9 21.225 A 20.201 20.201 0 0 1 39.686 22.3 A 22.229 22.229 0 0 1 39.5 22.45 Q 38.75 23.05 38.5 23.3 Q 38.5 24.7 37.825 26.575 Q 37.15 28.45 36 30.2 A 12.37 12.37 0 0 1 34.34 32.239 A 10.689 10.689 0 0 1 33.35 33.1 A 6.057 6.057 0 0 1 32.067 33.866 A 4.549 4.549 0 0 1 30.25 34.25 Q 29.527 34.25 29.419 33.671 A 1.207 1.207 0 0 1 29.4 33.45 Q 29.4 32.45 30.275 31 A 22.809 22.809 0 0 1 31.386 29.337 A 29.431 29.431 0 0 1 32.425 28 Q 33.7 26.45 34.95 25.175 A 44.568 44.568 0 0 1 35.687 24.439 Q 36.343 23.801 36.841 23.382 A 11.698 11.698 0 0 1 37 23.25 Z M 97.7 30.4 L 97.75 28.45 A 39.155 39.155 0 0 0 97.748 28.127 Q 97.744 27.628 97.729 26.78 A 315.65 315.65 0 0 0 97.725 26.575 A 56.28 56.28 0 0 0 97.681 25.194 A 71.395 71.395 0 0 0 97.6 23.7 A 57.317 57.317 0 0 0 97.503 22.411 Q 97.452 21.822 97.391 21.295 A 33.349 33.349 0 0 0 97.35 20.95 Q 97.232 20.004 97.113 19.648 A 0.767 0.767 0 0 0 97.05 19.5 Q 96.6 20.2 95.95 21.95 A 812.143 812.143 0 0 1 95.263 23.794 A 1088.836 1088.836 0 0 1 94.5 25.825 Q 93.7 27.95 92.825 29.95 Q 91.95 31.95 91.025 33.25 A 5.406 5.406 0 0 1 90.578 33.804 Q 89.882 34.55 89.2 34.55 A 2.692 2.692 0 0 1 88.581 34.484 Q 88.127 34.376 87.812 34.097 A 1.641 1.641 0 0 1 87.625 33.9 A 3.331 3.331 0 0 1 87.034 32.771 A 4.151 4.151 0 0 1 86.925 32.325 A 10.379 10.379 0 0 1 86.784 31.331 A 8.125 8.125 0 0 1 86.75 30.6 Q 86.75 29.65 87.2 27.75 A 36.615 36.615 0 0 1 87.731 25.769 A 48.531 48.531 0 0 1 88.425 23.625 Q 89.2 21.4 90.225 19.375 A 19.804 19.804 0 0 1 91.129 17.769 Q 91.744 16.792 92.4 16.05 Q 93.55 14.75 94.75 14.75 A 1.607 1.607 0 0 1 95.457 14.904 A 1.606 1.606 0 0 1 95.925 15.25 A 3.639 3.639 0 0 1 96.584 16.202 A 3.431 3.431 0 0 1 96.65 16.35 Q 96.737 16.219 96.94 16.203 A 0.745 0.745 0 0 1 97 16.2 A 0.874 0.874 0 0 1 97.618 16.467 Q 97.895 16.733 98.111 17.262 A 4.736 4.736 0 0 1 98.2 17.5 Q 98.545 18.496 98.757 19.857 A 22.743 22.743 0 0 1 98.875 20.725 A 58.7 58.7 0 0 1 99.187 24.444 A 63.978 63.978 0 0 1 99.2 24.7 A 98.58 98.58 0 0 1 99.261 26.16 Q 99.285 26.881 99.295 27.517 A 51.036 51.036 0 0 1 99.3 28.25 A 24.772 24.772 0 0 1 99.295 28.785 Q 99.288 29.073 99.275 29.325 A 28.634 28.634 0 0 0 99.264 29.549 Q 99.254 29.765 99.251 29.921 A 6.741 6.741 0 0 0 99.25 30.05 L 99.4 30.05 A 1.243 1.243 0 0 1 99.983 30.198 A 1.519 1.519 0 0 1 100.075 30.25 A 0.676 0.676 0 0 1 100.303 30.473 Q 100.382 30.602 100.397 30.77 A 0.914 0.914 0 0 1 100.4 30.85 A 1.011 1.011 0 0 1 100.359 31.152 Q 100.256 31.481 99.895 31.569 A 1.255 1.255 0 0 1 99.6 31.6 A 2.892 2.892 0 0 1 99.443 31.596 Q 99.258 31.586 99.15 31.55 Q 98.7 35.8 97.775 40.075 Q 96.85 44.35 94.95 48.25 Q 94.679 48.837 94.102 49.731 A 26.473 26.473 0 0 1 93.975 49.925 A 22.725 22.725 0 0 1 92.763 51.591 A 25.713 25.713 0 0 1 92.45 51.975 A 11.717 11.717 0 0 1 91.414 53.078 A 9.532 9.532 0 0 1 90.675 53.7 A 4.513 4.513 0 0 1 90.109 54.069 Q 89.787 54.244 89.481 54.327 A 2.035 2.035 0 0 1 88.95 54.4 A 3.062 3.062 0 0 1 88.333 54.342 Q 87.971 54.268 87.698 54.098 A 1.555 1.555 0 0 1 87.325 53.775 A 3.154 3.154 0 0 1 86.734 52.683 A 3.923 3.923 0 0 1 86.625 52.25 A 9.357 9.357 0 0 1 86.456 50.821 A 8.4 8.4 0 0 1 86.45 50.5 A 14.259 14.259 0 0 1 86.582 48.62 Q 86.708 47.674 86.955 46.637 A 24.288 24.288 0 0 1 87.05 46.25 A 29.993 29.993 0 0 1 88.213 42.678 A 34.856 34.856 0 0 1 88.725 41.45 Q 89.8 39 91.225 36.8 A 26.65 26.65 0 0 1 93.291 34.012 A 22.958 22.958 0 0 1 94.3 32.9 A 13.63 13.63 0 0 1 95.842 31.524 A 9.894 9.894 0 0 1 97.7 30.4 Z M 68.1 23.45 L 68.1 23.6 Q 68.1 24.35 67.6 25.7 Q 67.1 27.05 66.275 28.575 Q 65.45 30.1 64.475 31.5 A 17.356 17.356 0 0 1 63.622 32.63 Q 63.176 33.169 62.731 33.605 A 9.981 9.981 0 0 1 62.525 33.8 Q 61.93 34.35 61.381 34.564 A 1.868 1.868 0 0 1 60.7 34.7 A 2.519 2.519 0 0 1 59.895 34.577 A 2.078 2.078 0 0 1 58.95 33.925 A 4.549 4.549 0 0 1 58.3 32.88 A 6.113 6.113 0 0 1 57.975 31.975 Q 57.65 30.8 57.55 29.625 Q 57.461 28.574 57.451 27.863 A 12.287 12.287 0 0 1 57.45 27.7 Q 57.45 25 57.675 22.25 Q 57.9 19.5 58.15 16.8 Q 57.3 17.15 56.525 17.6 Q 55.75 18.05 55.1 18.75 A 2.544 2.544 0 0 1 54.965 18.875 A 3.063 3.063 0 0 1 54.875 18.95 A 0.441 0.441 0 0 1 54.696 19.035 Q 54.633 19.049 54.56 19.05 A 0.789 0.789 0 0 1 54.55 19.05 A 0.75 0.75 0 0 1 54.175 18.946 Q 54.022 18.859 53.875 18.7 A 1.535 1.535 0 0 1 53.698 18.473 Q 53.61 18.333 53.575 18.193 A 0.775 0.775 0 0 1 53.55 18 A 0.785 0.785 0 0 1 53.649 17.63 Q 53.779 17.384 54.081 17.131 A 3.136 3.136 0 0 1 54.15 17.075 Q 54.75 16.6 55.625 16.175 Q 56.5 15.75 57.275 15.45 A 72.521 72.521 0 0 1 57.623 15.317 Q 58.005 15.171 58.228 15.092 A 7.553 7.553 0 0 1 58.35 15.05 Q 58.4 14.65 58.575 13.525 Q 58.75 12.4 59 10.975 A 42.273 42.273 0 0 1 59.535 8.391 A 38.743 38.743 0 0 1 59.575 8.225 A 23.565 23.565 0 0 1 59.822 7.295 Q 59.95 6.854 60.081 6.479 A 10.897 10.897 0 0 1 60.25 6.025 Q 60.547 5.282 60.845 5.17 A 0.297 0.297 0 0 1 60.95 5.15 A 1.061 1.061 0 0 1 61.377 5.243 A 1.507 1.507 0 0 1 61.65 5.4 Q 62 5.65 62 6 Q 62 6.128 61.819 6.944 A 62.54 62.54 0 0 1 61.75 7.25 A 79.284 79.284 0 0 1 61.545 8.128 Q 61.452 8.516 61.347 8.94 A 142.296 142.296 0 0 1 61.125 9.825 A 76.198 76.198 0 0 0 60.695 11.601 A 62.09 62.09 0 0 0 60.475 12.6 Q 60.249 13.669 60.141 14.197 A 52.551 52.551 0 0 0 60.1 14.4 A 49.678 49.678 0 0 1 63.042 13.625 A 42.383 42.383 0 0 1 64.325 13.35 A 21.451 21.451 0 0 1 67.695 12.967 A 24.563 24.563 0 0 1 68.6 12.95 L 69.35 12.95 Q 69.9 12.95 70.425 13 A 2.864 2.864 0 0 1 70.59 13.02 Q 70.95 13.076 70.95 13.2 A 5.237 5.237 0 0 1 70.088 13.459 A 5.954 5.954 0 0 1 69.875 13.5 A 13.963 13.963 0 0 1 68.784 13.647 A 12.873 12.873 0 0 1 68.75 13.65 A 20.03 20.03 0 0 0 65.032 14.305 A 18.101 18.101 0 0 0 64.225 14.55 Q 62.1 15.25 59.9 16.1 Q 59.55 18.95 59.3 21.875 Q 59.05 24.8 59.05 27.65 Q 59.05 28.071 59.079 28.712 A 49.89 49.89 0 0 0 59.1 29.125 Q 59.15 30.05 59.3 30.975 A 6.155 6.155 0 0 0 59.47 31.732 Q 59.603 32.185 59.8 32.55 A 1.478 1.478 0 0 0 60.045 32.889 A 1.018 1.018 0 0 0 60.8 33.2 A 1.704 1.704 0 0 0 61.553 33.014 Q 61.822 32.882 62.094 32.659 A 4.532 4.532 0 0 0 62.55 32.225 Q 63.45 31.25 64.35 29.825 Q 65.25 28.4 66 26.95 Q 66.516 25.953 66.949 25.169 A 44.199 44.199 0 0 1 67.325 24.5 A 13.859 13.859 0 0 1 67.526 24.16 Q 67.901 23.55 68.069 23.462 A 0.141 0.141 0 0 1 68.1 23.45 Z M 131.8 23.45 L 131.8 23.6 Q 131.8 24.35 131.3 25.7 Q 130.8 27.05 129.975 28.575 Q 129.15 30.1 128.175 31.5 A 17.356 17.356 0 0 1 127.322 32.63 Q 126.876 33.169 126.431 33.605 A 9.981 9.981 0 0 1 126.225 33.8 Q 125.63 34.35 125.081 34.564 A 1.868 1.868 0 0 1 124.4 34.7 A 2.519 2.519 0 0 1 123.595 34.577 A 2.078 2.078 0 0 1 122.65 33.925 A 4.549 4.549 0 0 1 122 32.88 A 6.113 6.113 0 0 1 121.675 31.975 Q 121.35 30.8 121.25 29.625 Q 121.161 28.574 121.151 27.863 A 12.287 12.287 0 0 1 121.15 27.7 Q 121.15 25 121.375 22.25 Q 121.6 19.5 121.85 16.8 Q 121 17.15 120.225 17.6 Q 119.45 18.05 118.8 18.75 A 2.544 2.544 0 0 1 118.665 18.875 A 3.063 3.063 0 0 1 118.575 18.95 A 0.441 0.441 0 0 1 118.396 19.035 Q 118.333 19.049 118.26 19.05 A 0.789 0.789 0 0 1 118.25 19.05 A 0.75 0.75 0 0 1 117.875 18.946 Q 117.722 18.859 117.575 18.7 A 1.535 1.535 0 0 1 117.398 18.473 Q 117.31 18.333 117.275 18.193 A 0.775 0.775 0 0 1 117.25 18 A 0.785 0.785 0 0 1 117.349 17.63 Q 117.479 17.384 117.781 17.131 A 3.136 3.136 0 0 1 117.85 17.075 Q 118.45 16.6 119.325 16.175 Q 120.2 15.75 120.975 15.45 A 72.521 72.521 0 0 1 121.323 15.317 Q 121.705 15.171 121.928 15.092 A 7.553 7.553 0 0 1 122.05 15.05 Q 122.1 14.65 122.275 13.525 Q 122.45 12.4 122.7 10.975 A 42.273 42.273 0 0 1 123.235 8.391 A 38.743 38.743 0 0 1 123.275 8.225 A 23.565 23.565 0 0 1 123.522 7.295 Q 123.65 6.854 123.781 6.479 A 10.897 10.897 0 0 1 123.95 6.025 Q 124.247 5.282 124.545 5.17 A 0.297 0.297 0 0 1 124.65 5.15 A 1.061 1.061 0 0 1 125.077 5.243 A 1.507 1.507 0 0 1 125.35 5.4 Q 125.7 5.65 125.7 6 Q 125.7 6.128 125.519 6.944 A 62.54 62.54 0 0 1 125.45 7.25 A 79.284 79.284 0 0 1 125.245 8.128 Q 125.152 8.516 125.047 8.94 A 142.296 142.296 0 0 1 124.825 9.825 A 76.198 76.198 0 0 0 124.395 11.601 A 62.09 62.09 0 0 0 124.175 12.6 Q 123.949 13.669 123.841 14.197 A 52.551 52.551 0 0 0 123.8 14.4 A 49.678 49.678 0 0 1 126.742 13.625 A 42.383 42.383 0 0 1 128.025 13.35 A 21.451 21.451 0 0 1 131.395 12.967 A 24.563 24.563 0 0 1 132.3 12.95 L 133.05 12.95 Q 133.6 12.95 134.125 13 A 2.864 2.864 0 0 1 134.29 13.02 Q 134.65 13.076 134.65 13.2 A 5.237 5.237 0 0 1 133.788 13.459 A 5.954 5.954 0 0 1 133.575 13.5 A 13.963 13.963 0 0 1 132.484 13.647 A 12.873 12.873 0 0 1 132.45 13.65 A 20.03 20.03 0 0 0 128.732 14.305 A 18.101 18.101 0 0 0 127.925 14.55 Q 125.8 15.25 123.6 16.1 Q 123.25 18.95 123 21.875 Q 122.75 24.8 122.75 27.65 Q 122.75 28.071 122.779 28.712 A 49.89 49.89 0 0 0 122.8 29.125 Q 122.85 30.05 123 30.975 A 6.155 6.155 0 0 0 123.17 31.732 Q 123.303 32.185 123.5 32.55 A 1.478 1.478 0 0 0 123.745 32.889 A 1.018 1.018 0 0 0 124.5 33.2 A 1.704 1.704 0 0 0 125.253 33.014 Q 125.522 32.882 125.794 32.659 A 4.532 4.532 0 0 0 126.25 32.225 Q 127.15 31.25 128.05 29.825 Q 128.95 28.4 129.7 26.95 Q 130.216 25.953 130.649 25.169 A 44.199 44.199 0 0 1 131.025 24.5 A 13.859 13.859 0 0 1 131.226 24.16 Q 131.601 23.55 131.769 23.462 A 0.141 0.141 0 0 1 131.8 23.45 Z M 74.85 2.2 L 74.7 2.2 A 0.519 0.519 0 0 1 74.292 2.015 A 0.737 0.737 0 0 1 74.225 1.925 A 1.304 1.304 0 0 1 74.118 1.722 Q 74.068 1.599 74.055 1.481 A 0.736 0.736 0 0 1 74.05 1.4 A 0.921 0.921 0 0 1 74.313 0.76 Q 74.437 0.626 74.619 0.507 A 2.398 2.398 0 0 1 74.8 0.4 A 4.928 4.928 0 0 1 75.223 0.198 Q 75.657 0.018 75.987 0.002 A 1.31 1.31 0 0 1 76.05 0 A 1.88 1.88 0 0 1 76.821 0.153 Q 77.237 0.338 77.533 0.746 A 2.382 2.382 0 0 1 77.65 0.925 A 5.835 5.835 0 0 1 78.287 2.488 A 6.961 6.961 0 0 1 78.4 3.025 A 17.532 17.532 0 0 1 78.518 3.821 Q 78.6 4.488 78.6 5 A 14.408 14.408 0 0 1 78.468 6.919 A 15.809 15.809 0 0 1 78.45 7.05 A 31.124 31.124 0 0 1 77.89 9.973 A 39.966 39.966 0 0 1 77.225 12.4 Q 76.35 15.25 75.025 17.825 A 17.584 17.584 0 0 1 72.85 21.12 A 15.581 15.581 0 0 1 71.8 22.25 A 28.724 28.724 0 0 1 71.513 22.493 Q 71.253 22.71 70.925 22.975 A 2.155 2.155 0 0 1 70.515 23.24 A 1.504 1.504 0 0 1 69.85 23.4 Q 69.7 25.1 69.7 26.899 A 15.795 15.795 0 0 0 69.705 27.264 Q 69.719 27.869 69.775 28.825 Q 69.85 30.1 70.125 31.475 A 8.96 8.96 0 0 0 70.445 32.667 Q 70.667 33.303 70.975 33.825 A 2.453 2.453 0 0 0 71.349 34.318 A 1.572 1.572 0 0 0 72.5 34.8 A 2.113 2.113 0 0 0 73.563 34.501 Q 73.884 34.317 74.198 34.019 A 4.885 4.885 0 0 0 74.525 33.675 Q 75.5 32.55 76.35 30.875 Q 77.2 29.2 77.9 27.525 A 1298.546 1298.546 0 0 1 78.236 26.722 Q 78.719 25.569 79.075 24.725 A 14.036 14.036 0 0 1 79.237 24.356 Q 79.586 23.591 79.75 23.55 Q 79.856 23.692 79.887 23.934 A 1.708 1.708 0 0 1 79.9 24.15 A 4.425 4.425 0 0 1 79.856 24.74 Q 79.759 25.453 79.45 26.45 A 22.018 22.018 0 0 1 78.919 27.956 A 29.516 29.516 0 0 1 78.225 29.575 Q 77.45 31.25 76.45 32.775 Q 75.45 34.3 74.375 35.25 Q 73.515 36.01 72.639 36.162 A 2.563 2.563 0 0 1 72.2 36.2 Q 70.85 36.2 70.05 35.125 A 6.132 6.132 0 0 1 69.267 33.694 A 8.221 8.221 0 0 1 68.9 32.475 Q 68.55 30.9 68.45 29.35 Q 68.368 28.073 68.353 27.237 A 19.47 19.47 0 0 1 68.35 26.9 Q 68.35 21.85 69.5 16.7 A 94.015 94.015 0 0 1 69.976 14.715 Q 70.204 13.813 70.427 13.018 A 52.098 52.098 0 0 1 70.575 12.5 A 44.321 44.321 0 0 1 71.261 10.348 A 36.967 36.967 0 0 1 71.7 9.15 A 48.286 48.286 0 0 1 72.698 6.769 A 55.433 55.433 0 0 1 73.075 5.95 Q 73.85 4.3 74.85 2.2 Z M 79.85 34.075 A 2.395 2.395 0 0 0 79.918 34.189 Q 80.469 35.05 81.55 35.05 A 1.172 1.172 0 0 0 81.879 35 Q 82.288 34.88 82.783 34.476 A 6.332 6.332 0 0 0 83.25 34.05 A 12.651 12.651 0 0 0 83.532 33.759 Q 84.398 32.836 85.3 31.525 Q 86.35 30 87.25 28.325 Q 87.702 27.484 88.065 26.707 A 23.439 23.439 0 0 0 88.7 25.225 Q 89.25 23.8 89.25 23.15 Q 89.25 22.95 89.175 22.775 Q 89.1 22.6 88.85 22.6 A 0.114 0.114 0 0 0 88.796 22.617 Q 88.583 22.735 88.1 23.7 Q 87.688 24.525 87.134 25.646 A 764.38 764.38 0 0 0 86.75 26.425 Q 85.95 28.05 85.025 29.675 A 27.856 27.856 0 0 1 84.765 30.122 Q 83.973 31.455 83.2 32.4 A 6.154 6.154 0 0 1 82.983 32.651 Q 82.209 33.5 81.55 33.5 Q 81 33.5 80.75 32.775 A 5.951 5.951 0 0 1 80.605 32.286 A 6.957 6.957 0 0 1 80.425 31.2 A 44.101 44.101 0 0 1 80.414 31.069 Q 80.367 30.525 80.355 30.206 A 5.321 5.321 0 0 1 80.35 30 Q 80.35 29.241 80.469 28.379 A 17.119 17.119 0 0 1 80.725 26.975 Q 81.1 25.3 81.575 23.65 A 247.594 247.594 0 0 0 81.638 23.433 Q 82.073 21.914 82.4 20.7 Q 82.657 19.746 82.725 19.168 A 3.178 3.178 0 0 0 82.75 18.8 A 1.014 1.014 0 0 0 82.747 18.727 A 0.798 0.798 0 0 0 82.45 18.15 Q 82.15 17.9 81.75 17.9 Q 81.352 17.9 80.985 18.567 A 4.371 4.371 0 0 0 80.8 18.95 A 9.055 9.055 0 0 0 80.594 19.478 Q 80.431 19.937 80.286 20.478 A 19.155 19.155 0 0 0 80.025 21.6 Q 79.7 23.2 79.475 24.875 A 101.841 101.841 0 0 0 79.468 24.928 Q 79.358 25.75 79.272 26.493 A 62.938 62.938 0 0 0 79.125 27.9 A 66.853 66.853 0 0 0 79.084 28.357 Q 79 29.34 79 29.75 Q 79 30.3 79.071 31.075 A 29.311 29.311 0 0 0 79.15 31.825 Q 79.3 33.1 79.85 34.075 Z M 51.85 26.15 L 52.25 26.2 A 7.542 7.542 0 0 0 53.093 26.156 Q 53.95 26.06 54.5 25.75 A 9.286 9.286 0 0 0 55.03 25.43 Q 55.462 25.147 55.75 24.875 A 2.916 2.916 0 0 1 55.959 24.694 Q 56.273 24.45 56.5 24.45 Q 56.784 24.45 56.799 24.764 A 0.754 0.754 0 0 1 56.8 24.8 A 1.148 1.148 0 0 1 56.556 25.501 Q 56.437 25.66 56.26 25.808 A 2.438 2.438 0 0 1 56.175 25.875 A 5.859 5.859 0 0 1 55.481 26.325 Q 55.124 26.524 54.706 26.702 A 9.505 9.505 0 0 1 54.65 26.725 Q 53.75 27.1 52.9 27.25 A 7.126 7.126 0 0 1 52.552 27.303 Q 51.953 27.379 51.6 27.3 Q 51.43 28.014 51.11 28.947 A 32.83 32.83 0 0 1 50.775 29.875 Q 50.2 31.4 49.375 32.875 A 10.54 10.54 0 0 1 48.299 34.459 A 8.715 8.715 0 0 1 47.45 35.35 A 4.14 4.14 0 0 1 46.496 36.011 A 3.235 3.235 0 0 1 45.05 36.35 A 2.103 2.103 0 0 1 44.145 36.158 A 2.083 2.083 0 0 1 43.475 35.65 A 4.603 4.603 0 0 1 42.773 34.591 A 5.813 5.813 0 0 1 42.5 33.925 Q 42.15 32.9 42.025 31.85 A 22.318 22.318 0 0 1 41.951 31.141 Q 41.922 30.808 41.91 30.52 A 9.605 9.605 0 0 1 41.9 30.1 A 9.85 9.85 0 0 1 41.911 29.667 Q 41.94 29.009 42.048 27.934 A 68.1 68.1 0 0 1 42.075 27.675 A 36.449 36.449 0 0 1 42.306 25.906 Q 42.45 24.975 42.65 23.95 Q 43.05 21.9 43.65 19.975 A 17.145 17.145 0 0 1 44.196 18.462 Q 44.598 17.502 45.075 16.75 A 4.255 4.255 0 0 1 45.575 16.099 Q 46.218 15.421 47 15.35 Q 47.15 14.9 47.45 14.575 A 0.994 0.994 0 0 1 48.084 14.26 A 1.393 1.393 0 0 1 48.25 14.25 A 2.177 2.177 0 0 1 49.735 14.833 A 3.091 3.091 0 0 1 50 15.1 A 6.447 6.447 0 0 1 50.802 16.251 A 8.422 8.422 0 0 1 51.25 17.2 A 17.137 17.137 0 0 1 51.873 19.047 A 15.018 15.018 0 0 1 52.025 19.65 A 14.859 14.859 0 0 1 52.17 20.356 Q 52.291 21.036 52.299 21.531 A 4.262 4.262 0 0 1 52.3 21.6 Q 52.3 23.9 51.85 26.15 Z M 88.95 52.9 A 1.393 1.393 0 0 0 89.453 52.799 Q 89.658 52.72 89.875 52.578 A 3.732 3.732 0 0 0 90.275 52.275 A 8.149 8.149 0 0 0 91.074 51.478 A 10.689 10.689 0 0 0 91.675 50.725 A 25.711 25.711 0 0 0 92.46 49.588 A 21.617 21.617 0 0 0 92.875 48.925 A 40.731 40.731 0 0 0 93.12 48.511 Q 93.382 48.063 93.554 47.738 A 9.831 9.831 0 0 0 93.65 47.55 Q 95.5 43.95 96.4 39.975 Q 97.3 36 97.65 32 A 7.721 7.721 0 0 0 96.386 32.86 Q 95.82 33.327 95.257 33.941 A 14.55 14.55 0 0 0 94.875 34.375 Q 93.5 36 92.25 38.1 Q 91 40.2 90.025 42.475 A 34.608 34.608 0 0 0 89.017 45.106 A 27.941 27.941 0 0 0 88.5 46.825 A 19.514 19.514 0 0 0 88.165 48.308 Q 88.031 49.041 87.98 49.695 A 9.842 9.842 0 0 0 87.95 50.45 Q 87.95 50.68 87.979 51.071 A 21.51 21.51 0 0 0 88 51.325 Q 88.05 51.9 88.275 52.4 A 1.125 1.125 0 0 0 88.415 52.636 A 0.652 0.652 0 0 0 88.95 52.9 Z M 72.093 20.62 A 9.153 9.153 0 0 0 72.175 20.5 A 16.56 16.56 0 0 0 73.144 18.846 Q 73.589 17.982 73.999 16.977 A 28.327 28.327 0 0 0 74.15 16.6 Q 75.05 14.3 75.725 11.875 Q 76.4 9.45 76.775 7.425 A 38.002 38.002 0 0 0 76.939 6.477 Q 77.15 5.15 77.15 4.4 A 6.555 6.555 0 0 0 77.138 4.024 Q 77.116 3.634 77.05 3.125 A 1.524 1.524 0 0 0 76.95 2.735 A 0.982 0.982 0 0 0 76.3 2.15 A 0.48 0.48 0 0 1 76.212 2.334 A 0.468 0.468 0 0 1 76.075 2.45 A 1.813 1.813 0 0 0 75.954 2.525 Q 75.863 2.588 75.8 2.65 Q 75.2 3.3 74.45 5.15 A 36.017 36.017 0 0 0 73.799 6.893 Q 73.487 7.794 73.179 8.81 A 62.835 62.835 0 0 0 72.975 9.5 Q 72.25 12 71.6 14.55 A 136.258 136.258 0 0 0 71 16.994 A 102.231 102.231 0 0 0 70.5 19.225 Q 70.05 21.35 69.95 22.4 Q 71.056 22.112 72.093 20.62 Z M 45.2 35.05 A 1.285 1.285 0 0 0 45.806 34.887 Q 46.269 34.642 46.75 34.025 A 11.962 11.962 0 0 0 47.507 32.927 Q 47.852 32.366 48.181 31.713 A 19.886 19.886 0 0 0 48.275 31.525 Q 49 30.05 49.5 28.7 Q 49.877 27.682 50.055 27.063 A 7.17 7.17 0 0 0 50.15 26.7 Q 48.25 25.4 47.325 23.2 Q 46.4 21 46.4 18.7 Q 46.4 17.7 46.55 16.8 A 16.071 16.071 0 0 0 45.533 18.896 A 21.789 21.789 0 0 0 44.8 21.05 Q 44.1 23.5 43.775 26.05 A 43.06 43.06 0 0 0 43.531 28.488 A 31.79 31.79 0 0 0 43.45 30.7 A 5.873 5.873 0 0 0 43.458 30.985 Q 43.474 31.31 43.522 31.777 A 31.021 31.021 0 0 0 43.575 32.25 A 6.727 6.727 0 0 0 43.877 33.611 A 5.888 5.888 0 0 0 44.1 34.175 Q 44.5 35.05 45.2 35.05 Z M 89.2 32.9 A 0.874 0.874 0 0 0 89.64 32.768 Q 90.104 32.498 90.625 31.675 A 16.746 16.746 0 0 0 91.259 30.577 Q 91.725 29.699 92.2 28.6 A 54.563 54.563 0 0 0 93.523 25.229 A 59.831 59.831 0 0 0 93.7 24.725 A 227.198 227.198 0 0 0 94.337 22.857 Q 94.654 21.913 94.925 21.075 A 484.895 484.895 0 0 0 95.165 20.329 Q 95.464 19.399 95.616 18.909 A 46.101 46.101 0 0 0 95.65 18.8 A 1.843 1.843 0 0 1 95.588 18.663 Q 95.541 18.546 95.525 18.45 Q 95.5 18.3 95.5 18.15 L 95.5 17.525 Q 95.5 17.1 95.35 16.725 A 0.598 0.598 0 0 0 95.195 16.497 Q 95.084 16.397 94.918 16.365 A 0.89 0.89 0 0 0 94.75 16.35 A 1.499 1.499 0 0 0 94.015 16.557 Q 93.53 16.827 93.039 17.451 A 6.289 6.289 0 0 0 92.925 17.6 Q 92.13 18.674 91.409 20.229 A 23.118 23.118 0 0 0 91.175 20.75 Q 90.35 22.65 89.725 24.725 Q 89.1 26.8 88.725 28.5 A 29.906 29.906 0 0 0 88.561 29.291 Q 88.423 30.011 88.375 30.5 A 4.723 4.723 0 0 0 88.35 30.95 Q 88.35 31.38 88.441 32.082 A 18.719 18.719 0 0 0 88.45 32.15 A 1.317 1.317 0 0 0 88.524 32.452 Q 88.678 32.851 89.093 32.895 A 1.013 1.013 0 0 0 89.2 32.9 Z M 30.65 33.1 A 2.556 2.556 0 0 0 31.847 32.791 Q 32.211 32.601 32.568 32.293 A 4.987 4.987 0 0 0 32.7 32.175 A 9.394 9.394 0 0 0 33.826 30.918 A 12.067 12.067 0 0 0 34.525 29.875 Q 35.35 28.5 35.95 27.15 Q 36.55 25.8 36.75 25 Q 36.45 25.3 35.725 26.125 Q 35 26.95 34.1 28.025 A 142.51 142.51 0 0 0 32.582 29.868 A 129.417 129.417 0 0 0 32.375 30.125 A 40.621 40.621 0 0 0 31.795 30.862 Q 31.344 31.45 31 31.95 Q 30.45 32.75 30.45 33 Q 30.45 33.089 30.608 33.099 A 0.673 0.673 0 0 0 30.65 33.1 Z M 50.5 25.15 Q 50.8 23.4 50.8 21.6 A 2.995 2.995 0 0 0 50.789 21.364 Q 50.756 20.956 50.625 20.225 A 17.859 17.859 0 0 0 50.364 19.023 A 22.243 22.243 0 0 0 50.125 18.15 Q 49.811 17.087 49.38 16.304 A 6.649 6.649 0 0 0 49.35 16.25 Q 48.999 15.627 48.618 15.489 A 0.638 0.638 0 0 0 48.4 15.45 A 0.306 0.306 0 0 0 48.163 15.564 Q 48.118 15.615 48.081 15.688 A 1.028 1.028 0 0 0 48.025 15.825 A 2.948 2.948 0 0 0 47.904 16.35 A 3.614 3.614 0 0 0 47.875 16.65 Q 47.853 17.038 47.85 17.203 A 2.638 2.638 0 0 0 47.85 17.25 A 14.249 14.249 0 0 0 48.145 20.083 A 17.309 17.309 0 0 0 48.475 21.425 A 9.695 9.695 0 0 0 49.665 24.066 A 8.756 8.756 0 0 0 50.5 25.15 Z M 82.55 15.9 Q 82.2 15.9 81.9 15.725 Q 81.6 15.55 81.6 15.2 A 1.376 1.376 0 0 1 81.625 14.958 Q 81.693 14.581 81.95 13.975 A 10.367 10.367 0 0 1 82.511 12.855 A 12.476 12.476 0 0 1 82.85 12.3 A 8.975 8.975 0 0 1 83.492 11.423 A 7.101 7.101 0 0 1 84.025 10.85 A 3.418 3.418 0 0 1 84.348 10.574 Q 84.717 10.3 85.037 10.258 A 0.875 0.875 0 0 1 85.15 10.25 A 0.453 0.453 0 0 1 85.325 10.281 Q 85.55 10.375 85.55 10.75 Q 85.55 11.35 84.9 11.7 A 1.226 1.226 0 0 0 84.607 11.963 Q 84.393 12.223 84.225 12.65 Q 83.95 13.35 83.775 14.1 Q 83.604 14.834 83.457 15.28 A 6.482 6.482 0 0 1 83.45 15.3 Q 83.304 15.885 82.588 15.9 A 1.819 1.819 0 0 1 82.55 15.9 Z" vector-effect="non-scaling-stroke"/></g></svg>